<svg xmlns="http://www.w3.org/2000/svg" viewBox="0 0 900 1120" role="img" aria-labelledby="title desc">
  <title id="title">OpenParcelBox needs you</title>
  <desc id="desc">Community poster asking makers, coders and idea people to help build OpenParcelBox</desc>
  <rect width="900" height="1120" fill="#0b2540"/>
  <rect x="28" y="28" width="844" height="1064" fill="#ffe7b8"/>
  <rect x="48" y="48" width="804" height="1024" fill="none" stroke="#c9281c" stroke-width="10"/>
  <path d="M450 86 466 124h41l-33 24 13 39-37-24-36 24 13-39-34-24h42Z" fill="#c9281c"/>
  <g opacity=".28" fill="#fff7de">
    <path d="M450 242 66 70h118Z"/>
    <path d="M450 242 260 70h98Z"/>
    <path d="M450 242 540 70h98Z"/>
    <path d="M450 242 716 70h118Z"/>
  </g>
  <text x="450" y="178" text-anchor="middle" fill="#0b2540" font-family="Inter, Arial, sans-serif" font-size="72" font-weight="900">openparcelbox.org</text>
  <text x="450" y="300" text-anchor="middle" fill="#c9281c" font-family="Inter, Arial, sans-serif" font-size="128" font-weight="900">NEEDS YOU</text>
  <g transform="translate(250 360)">
    <path d="M80 110 200 40l120 70-120 70-120-70Z" fill="#fff" stroke="#0b2540" stroke-width="16" stroke-linejoin="round"/>
    <path d="M80 110v146l120 70V180L80 110Z" fill="#f6b14b" stroke="#0b2540" stroke-width="16" stroke-linejoin="round"/>
    <path d="M200 180v146l120-70V110l-120 70Z" fill="#c47a2c" stroke="#0b2540" stroke-width="16" stroke-linejoin="round"/>
    <path d="M126 264c38 42 110 42 148 0" fill="none" stroke="#0b2540" stroke-width="12" stroke-linecap="round"/>
    <circle cx="154" cy="230" r="15" fill="#0b2540"/>
    <circle cx="246" cy="230" r="15" fill="#0b2540"/>
    <rect x="238" y="142" width="76" height="130" rx="8" fill="#2b3035" stroke="#0b2540" stroke-width="10"/>
    <rect x="257" y="164" width="35" height="25" fill="#16a394"/>
    <path d="M140 92c32-62 88-62 120 0" fill="none" stroke="#0b2540" stroke-width="16" stroke-linecap="round"/>
    <path d="M94 88h212l-30 42H124Z" fill="#0b2540"/>
    <path d="M166 104h68l-34 20Z" fill="#fff"/>
    <path d="M66 274C-4 284-26 196 42 178" fill="none" stroke="#0b2540" stroke-width="18" stroke-linecap="round"/>
    <path d="M34 178 92 196" stroke="#0b2540" stroke-width="18" stroke-linecap="round"/>
  </g>
  <rect x="48" y="900" width="804" height="142" fill="#0b2540"/>
  <text x="450" y="965" text-anchor="middle" fill="#fff" font-family="Inter, Arial, sans-serif" font-size="54" font-weight="900">MAKERS. CODERS. IDEA PEOPLE.</text>
  <text x="450" y="1028" text-anchor="middle" fill="#ffe7b8" font-family="Inter, Arial, sans-serif" font-size="39" font-weight="900">HELP BUILD A FREE PARCEL BOX SOLUTION.</text>
</svg>
