<svg xmlns="http://www.w3.org/2000/svg" viewBox="0 0 1200 630" role="img" aria-labelledby="title desc">
  <title id="title">OpenParcelBox social preview</title>
  <desc id="desc">OpenParcelBox social preview with parcel box, lock and project tagline</desc>
  <rect width="1200" height="630" fill="#f7f8f5"/>
  <circle cx="950" cy="124" r="210" fill="#e7f2ee"/>
  <circle cx="180" cy="520" r="160" fill="#edf1ea"/>
  <g transform="translate(410 56) scale(1.45)">
    <path d="M70 84 128 50l58 34-58 34-58-34Z" fill="#fff" stroke="#123957" stroke-width="10" stroke-linejoin="round"/>
    <path d="M70 84v70l58 34v-70L70 84Z" fill="#fff" stroke="#123957" stroke-width="10" stroke-linejoin="round"/>
    <path d="M128 118v70l58-34V84l-58 34Z" fill="#2aa69a" stroke="#123957" stroke-width="10" stroke-linejoin="round"/>
    <path d="M70 84 49 42l58-20 21 28" fill="none" stroke="#123957" stroke-width="10" stroke-linecap="round" stroke-linejoin="round"/>
    <path d="M152 137v-13a16 16 0 0 1 32 0v13" fill="none" stroke="#123957" stroke-width="9" stroke-linecap="round"/>
    <rect x="142" y="134" width="52" height="46" rx="8" fill="#123957"/>
    <path d="M168 151a8 8 0 0 0-4 15l-5 12h18l-5-12a8 8 0 0 0-4-15Z" fill="#fff"/>
    <path d="M206 78c20 25 20 66 0 92M230 50c34 44 34 118 0 162" fill="none" stroke="#2aa69a" stroke-width="13" stroke-linecap="round"/>
  </g>
  <text x="600" y="404" text-anchor="middle" fill="#134f57" font-family="Inter, ui-sans-serif, system-ui, -apple-system, BlinkMacSystemFont, Segoe UI, sans-serif" font-size="92" font-weight="850" letter-spacing="0">OpenParcelBox</text>
  <text x="600" y="468" text-anchor="middle" fill="#227870" font-family="Inter, ui-sans-serif, system-ui, -apple-system, BlinkMacSystemFont, Segoe UI, sans-serif" font-size="38" font-weight="750" letter-spacing="0">Open ecosystem for smart parcel delivery</text>
  <text x="600" y="524" text-anchor="middle" fill="#66706b" font-family="Inter, ui-sans-serif, system-ui, -apple-system, BlinkMacSystemFont, Segoe UI, sans-serif" font-size="34" font-weight="650" letter-spacing="0">Local-first. Carrier-neutral. Retrofit-friendly.</text>
</svg>
