<svg xmlns="http://www.w3.org/2000/svg" viewBox="0 0 720 160" role="img" aria-labelledby="title desc">
  <title id="title">OpenParcelBox logo</title>
  <desc id="desc">OpenParcelBox wordmark with parcel box icon</desc>
  <rect width="720" height="160" fill="none"/>
  <g transform="translate(18 16) scale(.5)">
    <rect width="256" height="256" rx="48" fill="#f7f8f5"/>
    <path d="M70 84 128 50l58 34-58 34-58-34Z" fill="#fff" stroke="#123957" stroke-width="10" stroke-linejoin="round"/>
    <path d="M70 84v70l58 34v-70L70 84Z" fill="#fff" stroke="#123957" stroke-width="10" stroke-linejoin="round"/>
    <path d="M128 118v70l58-34V84l-58 34Z" fill="#2aa69a" stroke="#123957" stroke-width="10" stroke-linejoin="round"/>
    <path d="M70 84 49 42l58-20 21 28" fill="none" stroke="#123957" stroke-width="10" stroke-linecap="round" stroke-linejoin="round"/>
    <path d="M152 137v-13a16 16 0 0 1 32 0v13" fill="none" stroke="#123957" stroke-width="9" stroke-linecap="round"/>
    <rect x="142" y="134" width="52" height="46" rx="8" fill="#123957"/>
    <path d="M168 151a8 8 0 0 0-4 15l-5 12h18l-5-12a8 8 0 0 0-4-15Z" fill="#fff"/>
  </g>
  <text x="164" y="78" fill="#134f57" font-family="Inter, ui-sans-serif, system-ui, -apple-system, BlinkMacSystemFont, Segoe UI, sans-serif" font-size="50" font-weight="800" letter-spacing="0">OpenParcelBox</text>
  <text x="168" y="116" fill="#66706b" font-family="Inter, ui-sans-serif, system-ui, -apple-system, BlinkMacSystemFont, Segoe UI, sans-serif" font-size="21" font-weight="650" letter-spacing="0">Local-first. Carrier-neutral. Retrofit-friendly.</text>
</svg>
